<svg xmlns="http://www.w3.org/2000/svg" width="50" height="50" viewBox="0 0 50 50" fill="none">
  <mask id="operations-mask" width="50" height="50" x="0" y="0" maskUnits="userSpaceOnUse" style="mask-type:alpha">
    <path fill="#D9D9D9" d="M0 0h50v50H0z"/>
  </mask>
  <g mask="url(#operations-mask)">
    <path fill="#1C1B1F" d="M25.573 32.344q3.645 0 6.198-2.344 2.552-2.344 2.552-5.677 0-2.97-1.901-5.026-1.9-2.058-4.61-2.058-2.447 0-4.14 1.563t-1.693 3.854q0 .99.39 1.927a5.8 5.8 0 0 0 1.12 1.719l2.97-2.969a.7.7 0 0 1-.235-.26.8.8 0 0 1-.078-.365q0-.573.469-.911t1.198-.339q1.041 0 1.718.86.678.858.677 2.057 0 1.614-1.328 2.734t-3.255 1.12q-2.448 0-4.14-1.98-1.694-1.978-1.693-4.843 0-1.51.573-2.89t1.614-2.422l-2.969-2.97a11.1 11.1 0 0 0-2.552 3.75 11.6 11.6 0 0 0-.885 4.48q0 4.584 2.917 7.787t7.083 3.203M12.5 45.834v-8.96a19.2 19.2 0 0 1-4.61-6.327 18.3 18.3 0 0 1-1.64-7.63q0-7.813 5.469-13.282Q17.188 4.167 25 4.167q6.51 0 11.536 3.828t6.537 9.974l2.708 10.677a1.97 1.97 0 0 1-.364 1.796q-.626.808-1.667.808h-4.167v6.25q0 1.719-1.224 2.943t-2.942 1.224H31.25v4.166h-4.167V37.5h8.334V27.083h5.625l-1.98-8.073q-1.198-4.74-5.104-7.708Q30.052 8.332 25 8.333q-6.041 0-10.313 4.219-4.27 4.219-4.27 10.26 0 3.126 1.276 5.938 1.275 2.812 3.62 5L16.666 35v10.833H12.5Z"/>
  </g>
</svg>
